<svg data-v-423bf9ae="" xmlns="http://www.w3.org/2000/svg" viewBox="0 0 181.02533883323514 180" class="iconAbove"><!----><!----><!----><g data-v-423bf9ae="" id="7863b3fb-58da-4c6d-b5bd-6e67d0d54890" fill="#F7A072" transform="matrix(4.525633335113525,0,0,4.525633335113525,-3.6240365505218506,101.42410278320312)"><path d="M6.44 14.35L8.11 14.35L9.18 8.95L5.49 8.95L5.15 10.65L6.92 10.65L6.82 11.13C6.64 12.03 5.66 12.71 4.45 12.71C3.58 12.71 2.84 12.19 2.84 10.98C2.84 10.74 2.87 10.47 2.93 10.19L3.23 8.65C3.53 7.15 4.34 6.22 5.84 6.22C6.83 6.22 7.56 6.71 7.78 7.62L9.48 6.72C9.04 5.22 7.67 4.41 5.95 4.41C2.87 4.41 0.80 7.07 0.80 10.60C0.80 13.20 2.10 14.52 3.96 14.52C5.29 14.52 6.15 13.75 6.64 12.80L6.75 12.80ZM12.63 6.19C13.57 6.19 13.85 5.67 13.97 5.18C14.01 5.01 14.06 4.79 14.06 4.62C14.06 4.17 13.73 3.89 13.05 3.89C12.11 3.89 11.83 4.41 11.70 4.90C11.66 5.07 11.62 5.29 11.62 5.46C11.62 5.91 11.94 6.19 12.63 6.19ZM12.78 14.35L13.09 12.78L12.26 12.78L13.43 7.00L11.47 7.00L10.29 12.88C10.26 13.02 10.25 13.12 10.25 13.23C10.25 13.90 10.75 14.35 11.51 14.35ZM17.56 8.57L19.00 8.57L19.31 7.00L17.88 7.00L18.16 5.56L19.50 5.56L19.84 3.99L18.77 3.99C17.25 3.99 16.37 4.70 16.09 6.09L15.90 7.00L14.94 7.00L14.63 8.57L15.60 8.57L14.20 15.58L12.85 15.58L12.52 17.15L13.58 17.15C15.11 17.15 15.99 16.44 16.27 15.05ZM22.67 14.35L22.97 12.78L21.63 12.78L22.47 8.57L23.95 8.57L24.28 7.00L22.79 7.00L23.18 5.01L21.36 5.01L21.11 6.26C21.01 6.76 20.89 7.00 20.29 7.00L19.80 7.00L19.49 8.57L20.52 8.57L19.77 12.36C19.73 12.57 19.71 12.82 19.71 12.96C19.71 13.89 20.30 14.35 21.43 14.35ZM26.67 6.19C27.61 6.19 27.89 5.67 28.01 5.18C28.06 5.01 28.10 4.79 28.10 4.62C28.10 4.17 27.78 3.89 27.09 3.89C26.15 3.89 25.87 4.41 25.75 4.90C25.70 5.07 25.66 5.29 25.66 5.46C25.66 5.91 25.98 6.19 26.67 6.19ZM26.82 14.35L27.13 12.78L26.31 12.78L27.47 7.00L25.51 7.00L24.33 12.88C24.30 13.02 24.29 13.12 24.29 13.23C24.29 13.90 24.79 14.35 25.55 14.35ZM31.60 8.57L33.04 8.57L33.35 7.00L31.92 7.00L32.20 5.56L33.54 5.56L33.88 3.99L32.82 3.99C31.29 3.99 30.41 4.70 30.13 6.09L29.95 7.00L28.98 7.00L28.67 8.57L29.64 8.57L28.24 15.58L26.89 15.58L26.56 17.15L27.62 17.15C29.15 17.15 30.03 16.44 30.31 15.05ZM37.39 9.77L36.16 12.52L36.08 12.52L35.85 9.77L35.57 7.00L33.63 7.00L34.66 14.77L34.27 15.58L32.91 15.58L32.59 17.15L33.68 17.15C35.08 17.15 35.71 16.62 36.29 15.54L40.80 7.00L38.71 7.00Z"></path></g><!----><g data-v-423bf9ae="" id="ceea2aeb-9afc-4b7a-b0f3-7f1b5afb44d8" transform="matrix(1.0854166746139526,0,0,1.0854166746139526,36.83854293823242,-1.1145837306976318)" stroke="none" fill="#F9B38E"><path d="M12.515 55h26.736v43.845H12.515zM60.746 55h26.737v43.845H60.746z"></path><path d="M76.59 29.331c3.945-.625 7.939-2.682 11.698-4.331l.07-.034c-.157-1.911-.92-4.451-2.358-5.966-1.987-2.092-4.717-3.13-4-6 1-4 1-7-1.006-11.845-3.692 1.067-9.706 2.608-14.719 6.212-5.603 4.033-9.481 8.07-12.125 11.68v-2.153c0-2.06 2.533-3.728 2.533-3.728h-7.685c-1.741 0-3.149 1.668-3.149 3.728v2.084c-2.645-3.592-6.505-7.604-12.074-11.611-5.011-3.604-11.023-5.145-14.717-6.212C17.281 4.618 16 6 18 14c.785 3.138-6 1-6.304 10.966l.069.034c3.76 1.649 7.754 3.705 11.7 4.331H7.109v21.383h32.142V29.73c1.636-.207 2.45-.466 3.749-.748v69.862h14V28.802c1.299.286 2.109.545 3.746.756v21.156h32.145V29.331H76.59z"></path></g><!----></svg>